<svg width="181" height="34" viewBox="0 0 181 34" fill="none" xmlns="http://www.w3.org/2000/svg">
<path fill-rule="evenodd" clip-rule="evenodd" d="M24.015 0.0390056C19.1586 1.48908 14.7416 1.47609 9.87732 0C7.4947 4.40374 4.40399 7.49428 0 9.87679C1.47611 14.7409 1.48925 19.1578 0.0394326 24.0138C4.46583 26.417 7.56264 29.5398 9.94764 34C14.7605 32.5522 19.1391 32.5393 23.9442 33.9613C26.3497 29.4783 29.4786 26.3493 33.9613 23.9438C32.5393 19.1384 32.5524 14.7596 34.0005 9.94643C29.5406 7.56156 26.418 4.46496 24.015 0.0390056ZM17.0004 29.1431C18.6251 19.9419 19.9421 18.6248 29.1432 17.0001C19.9421 15.3754 18.6251 14.0583 17.0004 4.85709C15.3756 14.0583 14.0586 15.3754 4.85721 17.0001C14.0586 18.6248 15.3756 19.9419 17.0004 29.1431Z" fill="#B14AB3"/>
<path d="M177.207 9.88359V20.5503C177.207 21.1146 177.347 21.5379 177.628 21.8201C177.909 22.1023 178.281 22.2434 178.745 22.2434C179.138 22.2434 179.469 22.1728 179.736 22.0317C180.017 21.8906 180.269 21.7002 180.494 21.4603L181 22.7302C180.691 23.0265 180.333 23.2593 179.925 23.4286C179.518 23.5838 179.054 23.6614 178.534 23.6614C177.748 23.6614 177.073 23.4427 176.511 23.0053C175.963 22.5679 175.689 21.8413 175.689 20.8254V10.3069L177.207 9.88359ZM180.831 12.8677V14.1799H173.708V12.8677H180.831Z" fill="white"/>
<path d="M166.848 23.6614C165.893 23.6614 165.043 23.4427 164.298 23.0053C163.568 22.5679 162.991 21.94 162.57 21.1217C162.148 20.2892 161.938 19.3016 161.938 18.1587C161.938 17.0159 162.141 16.0353 162.549 15.2169C162.97 14.3845 163.539 13.7496 164.256 13.3122C164.987 12.8748 165.815 12.6561 166.743 12.6561C167.684 12.6561 168.485 12.8677 169.145 13.291C169.806 13.7143 170.311 14.2928 170.663 15.0264C171.014 15.7601 171.19 16.5926 171.19 17.5238C171.19 17.7496 171.182 17.9471 171.168 18.1164C171.154 18.2857 171.14 18.4339 171.126 18.5608H162.928V17.2063H170.452L169.672 17.3757C169.672 16.6561 169.546 16.0494 169.293 15.5555C169.054 15.0476 168.71 14.6596 168.26 14.3915C167.825 14.1235 167.312 13.9894 166.722 13.9894C166.047 13.9894 165.457 14.1587 164.951 14.4973C164.46 14.836 164.08 15.3157 163.813 15.9365C163.546 16.5573 163.413 17.2981 163.413 18.1587C163.413 19.0194 163.553 19.7601 163.834 20.3809C164.115 21.0018 164.509 21.4815 165.015 21.8201C165.534 22.1587 166.139 22.328 166.827 22.328C167.558 22.328 168.162 22.1728 168.639 21.8624C169.131 21.5379 169.518 21.1146 169.799 20.5926L171 21.291C170.747 21.7707 170.417 22.194 170.009 22.5608C169.616 22.9136 169.152 23.1887 168.618 23.3862C168.085 23.5697 167.494 23.6614 166.848 23.6614Z" fill="white"/>
<path d="M159.452 12.8677L155.089 17.418L154.731 17.7778L151.507 21.164V19.2593L157.534 12.8677H159.452ZM152.223 8V23.4497H150.706V8H152.223ZM155.216 16.6349L159.663 23.4497H157.829L153.972 17.5026L155.216 16.6349Z" fill="white"/>
<path d="M141.659 23.4497V12.8677H142.923L143.113 14.7302C143.366 14.067 143.759 13.5591 144.293 13.2063C144.827 12.8395 145.466 12.6561 146.211 12.6561C146.408 12.6561 146.604 12.6772 146.801 12.7196C146.998 12.7478 147.166 12.8113 147.307 12.91L147.054 14.2857C146.913 14.2152 146.752 14.1658 146.569 14.1376C146.401 14.0952 146.162 14.0741 145.853 14.0741C145.431 14.0741 145.01 14.2152 144.588 14.4973C144.181 14.7654 143.844 15.1675 143.577 15.7037C143.31 16.2399 143.176 16.8959 143.176 17.672V23.4497H141.659Z" fill="white"/>
<path d="M135.55 16.5714C135.55 15.7672 135.339 15.1393 134.918 14.6878C134.496 14.2222 133.899 13.9894 133.126 13.9894C132.424 13.9894 131.827 14.1587 131.335 14.4973C130.843 14.8219 130.478 15.3439 130.239 16.0635L128.996 15.3016C129.277 14.4973 129.776 13.8554 130.492 13.3757C131.223 12.8959 132.115 12.6561 133.169 12.6561C133.913 12.6561 134.574 12.7901 135.15 13.0582C135.74 13.3122 136.203 13.7072 136.541 14.2434C136.892 14.7795 137.067 15.4568 137.067 16.2751V21.4391C137.067 22.0176 137.334 22.3069 137.868 22.3069C137.981 22.3069 138.107 22.2998 138.248 22.2857C138.388 22.2575 138.508 22.2222 138.606 22.1799L138.522 23.3862C138.409 23.4427 138.262 23.4921 138.079 23.5344C137.91 23.5767 137.714 23.5979 137.489 23.5979C137.124 23.5979 136.786 23.5273 136.477 23.3862C136.182 23.231 135.943 22.9982 135.761 22.6878C135.592 22.3633 135.508 21.9612 135.508 21.4815V21.1852L135.887 21.2275C135.733 21.7778 135.459 22.2363 135.065 22.6032C134.686 22.9559 134.243 23.224 133.738 23.4074C133.246 23.5767 132.747 23.6614 132.241 23.6614C131.328 23.6614 130.548 23.4286 129.902 22.963C129.256 22.4832 128.933 21.7707 128.933 20.8254C128.933 20.0635 129.171 19.4286 129.649 18.9206C130.141 18.3986 130.857 18.0388 131.799 17.8413L135.824 16.9947V18.2645L132.515 18.9841C131.827 19.1252 131.314 19.3298 130.977 19.5979C130.64 19.866 130.471 20.2469 130.471 20.7407C130.471 21.2205 130.64 21.6085 130.977 21.9048C131.328 22.1869 131.827 22.328 132.473 22.328C132.852 22.328 133.225 22.2787 133.59 22.1799C133.955 22.067 134.286 21.8977 134.581 21.672C134.876 21.4462 135.107 21.164 135.276 20.8254C135.459 20.4727 135.55 20.0564 135.55 19.5767V16.5714Z" fill="white"/>
<path d="M108.87 23.4497V12.8677H110.198L110.303 14.6667C110.654 13.9894 111.139 13.4885 111.757 13.164C112.376 12.8254 113.029 12.6561 113.717 12.6561C114.476 12.6561 115.178 12.8395 115.825 13.2063C116.471 13.5591 116.949 14.1093 117.258 14.8571C117.469 14.3633 117.771 13.9541 118.164 13.6296C118.571 13.3051 119.021 13.0652 119.513 12.91C120.005 12.7407 120.482 12.6561 120.946 12.6561C121.62 12.6561 122.252 12.7972 122.843 13.0794C123.433 13.3615 123.91 13.7989 124.276 14.3915C124.655 14.9841 124.845 15.739 124.845 16.6561V23.4497H123.327V16.8042C123.327 15.8166 123.081 15.1041 122.59 14.6667C122.098 14.2152 121.494 13.9894 120.777 13.9894C120.215 13.9894 119.695 14.1305 119.218 14.4127C118.74 14.6949 118.354 15.1041 118.059 15.6402C117.764 16.1764 117.616 16.8183 117.616 17.5661V23.4497H116.099V16.8042C116.099 15.8166 115.853 15.1041 115.361 14.6667C114.869 14.2152 114.265 13.9894 113.549 13.9894C113.071 13.9894 112.586 14.1235 112.095 14.3915C111.603 14.6455 111.195 15.0476 110.872 15.5979C110.549 16.1481 110.387 16.8536 110.387 17.7143V23.4497H108.87Z" fill="white"/>
<path d="M100.194 23.6614C99.0422 23.6614 98.0447 23.4497 97.2017 23.0264C96.3587 22.5891 95.7054 21.9612 95.2418 21.1428C94.7922 20.3104 94.5674 19.3157 94.5674 18.1587C94.5674 16.9876 94.7992 15.9929 95.2628 15.1746C95.7265 14.3563 96.3657 13.7354 97.1806 13.3122C98.0096 12.8748 98.9579 12.6561 100.026 12.6561C101.122 12.6561 102.056 12.8748 102.829 13.3122C103.601 13.7354 104.191 14.328 104.599 15.0899C105.006 15.8377 105.21 16.6984 105.21 17.672C105.21 17.94 105.203 18.2011 105.189 18.455C105.175 18.6949 105.154 18.8995 105.126 19.0688H96.8856V17.1429H103.545L101.838 17.7989C101.838 17.2346 101.768 16.7619 101.627 16.3809C101.501 15.9859 101.304 15.6896 101.037 15.4921C100.77 15.2804 100.433 15.1746 100.026 15.1746C99.5902 15.1746 99.2178 15.2804 98.9088 15.4921C98.5997 15.7037 98.3678 16.0353 98.2133 16.4868C98.0587 16.9383 97.9815 17.5167 97.9815 18.2222C97.9815 18.9136 98.0658 19.4779 98.2344 19.9153C98.417 20.3386 98.6699 20.649 98.993 20.8466C99.3302 21.03 99.7307 21.1217 100.194 21.1217C100.7 21.1217 101.115 21.0159 101.438 20.8042C101.761 20.5926 101.993 20.2963 102.133 19.9153L104.999 20.8677C104.803 21.4744 104.458 21.9894 103.967 22.4127C103.489 22.8219 102.92 23.1323 102.26 23.3439C101.613 23.5555 100.925 23.6614 100.194 23.6614Z" fill="white"/>
<path d="M89.3811 9.50264V19.6825C89.3811 20.1905 89.5006 20.5573 89.7394 20.7831C89.9783 20.9947 90.3155 21.1005 90.751 21.1005C91.0741 21.1005 91.3551 21.0582 91.594 20.9735C91.8328 20.8889 92.0506 20.776 92.2473 20.6349L92.6266 22.8571C92.2754 23.097 91.8328 23.2945 91.2989 23.4497C90.7791 23.5908 90.2452 23.6614 89.6973 23.6614C88.503 23.6614 87.5547 23.4074 86.8522 22.8995C86.1638 22.3774 85.8195 21.5026 85.8195 20.2751V10.4974L89.3811 9.50264ZM92.458 12.8677V15.4286H84.0282V12.8677H92.458Z" fill="white"/>
<path d="M81.4683 12.8677V23.4497H77.8856V12.8677H81.4683ZM79.677 11.6402C78.9464 11.6402 78.4125 11.5062 78.0753 11.2381C77.7521 10.9559 77.5906 10.5185 77.5906 9.92592C77.5906 9.31922 77.7521 8.88183 78.0753 8.61376C78.4125 8.33157 78.9464 8.19048 79.677 8.19048C80.4075 8.19048 80.9344 8.33157 81.2576 8.61376C81.5948 8.88183 81.7633 9.31922 81.7633 9.92592C81.7633 10.5185 81.5948 10.9559 81.2576 11.2381C80.9344 11.5062 80.4075 11.6402 79.677 11.6402Z" fill="white"/>
<path d="M63.9198 23.4497V12.8677H67.1231L67.3128 16.5079L66.9124 16.1058C67.1231 14.9771 67.5657 14.1235 68.2401 13.545C68.9145 12.9524 69.7645 12.6561 70.7901 12.6561C71.5067 12.6561 72.1319 12.7972 72.6658 13.0794C73.1997 13.3615 73.6141 13.7848 73.9092 14.3492C74.2183 14.8995 74.3728 15.5838 74.3728 16.4021V23.4497H70.7901V17.3545C70.7901 16.6349 70.6567 16.134 70.3897 15.8518C70.1228 15.5555 69.7715 15.4074 69.336 15.4074C69.0128 15.4074 68.7108 15.4921 68.4298 15.6614C68.1488 15.8166 67.924 16.0705 67.7554 16.4233C67.5868 16.776 67.5025 17.2487 67.5025 17.8413V23.4497H63.9198Z" fill="white"/>
<path d="M61.3247 10.0317L61.6198 12.4444C61.5214 12.4162 61.4301 12.4021 61.3458 12.4021C61.2615 12.388 61.1842 12.3809 61.114 12.3809C60.5098 12.3809 60.0532 12.5362 59.7441 12.8466C59.4491 13.1429 59.3016 13.5168 59.3016 13.9683L58.0371 13.5026C58.0371 12.91 58.1425 12.3527 58.3532 11.8307C58.564 11.2945 58.8871 10.8571 59.3226 10.5185C59.7582 10.1799 60.3131 10.0106 60.9875 10.0106C61.0297 10.0106 61.0789 10.0106 61.1351 10.0106C61.2053 10.0106 61.2685 10.0176 61.3247 10.0317ZM57.742 21.1005C58.9363 21.1005 59.8565 21.3615 60.5028 21.8836C61.1632 22.3915 61.4933 23.1252 61.4933 24.0847C61.4933 24.9594 61.2545 25.6861 60.7768 26.2645C60.3131 26.8571 59.6458 27.2945 58.7747 27.5767C57.9177 27.8589 56.9061 28 55.74 28C53.8573 28 52.4945 27.7601 51.6515 27.2804C50.8225 26.8007 50.4081 26.1517 50.4081 25.3333C50.4081 24.7407 50.6469 24.254 51.1246 23.873C51.6023 23.5062 52.3821 23.3157 53.4639 23.3016L53.3796 23.6402C52.5226 23.5273 51.8833 23.2663 51.4618 22.8571C51.0544 22.448 50.8506 21.9189 50.8506 21.2698C50.8506 20.6067 51.1176 20.0564 51.6515 19.619C52.1854 19.1817 52.8808 18.9489 53.7379 18.9206L55.0656 19.5344H54.7284C54.1945 19.5485 53.8151 19.6332 53.5903 19.7884C53.3656 19.9436 53.2532 20.1411 53.2532 20.3809C53.2532 20.6067 53.3445 20.7831 53.5271 20.9101C53.7238 21.037 54.0189 21.1005 54.4123 21.1005H57.742ZM55.7821 25.672C56.4424 25.672 56.9904 25.6226 57.4259 25.5238C57.8615 25.4391 58.1846 25.3122 58.3954 25.1429C58.6061 24.9877 58.7115 24.8042 58.7115 24.5926C58.7115 24.3668 58.6272 24.1975 58.4586 24.0847C58.304 23.9718 58.0441 23.9153 57.6788 23.9153H53.9486C53.6957 23.9153 53.485 23.9859 53.3164 24.127C53.1618 24.2681 53.0846 24.4444 53.0846 24.6561C53.0846 24.9665 53.3234 25.2134 53.8011 25.3968C54.2788 25.5802 54.9391 25.672 55.7821 25.672ZM55.8875 12.6561C56.9553 12.6561 57.8615 12.7972 58.6061 13.0794C59.3648 13.3615 59.9408 13.7707 60.3342 14.3069C60.7417 14.843 60.9454 15.4921 60.9454 16.254C60.9454 17.0159 60.7417 17.6649 60.3342 18.2011C59.9408 18.7231 59.3648 19.1252 58.6061 19.4074C57.8615 19.6896 56.9553 19.8307 55.8875 19.8307C54.2296 19.8307 52.9722 19.5203 52.1151 18.8995C51.2721 18.2787 50.8506 17.3968 50.8506 16.254C50.8506 15.4921 51.0473 14.843 51.4407 14.3069C51.8341 13.7707 52.4031 13.3615 53.1478 13.0794C53.9065 12.7972 54.8197 12.6561 55.8875 12.6561ZM55.8875 14.709C55.4379 14.709 55.0726 14.843 54.7916 15.1111C54.5106 15.3792 54.3701 15.7601 54.3701 16.254C54.3701 16.7337 54.5106 17.1076 54.7916 17.3757C55.0726 17.6437 55.4379 17.7778 55.8875 17.7778C56.3371 17.7778 56.7024 17.6437 56.9834 17.3757C57.2644 17.1076 57.4049 16.7337 57.4049 16.254C57.4049 15.7601 57.2644 15.3792 56.9834 15.1111C56.7024 14.843 56.3371 14.709 55.8875 14.709Z" fill="white"/>
<path d="M47.6248 9.48148V23.4497H44V9.48148H47.6248Z" fill="white"/>
</svg>
